<svg xmlns="http://www.w3.org/2000/svg" viewBox="0 0 257061 333334" shape-rendering="geometricPrecision" text-rendering="geometricPrecision" image-rendering="optimizeQuality" fill-rule="evenodd" clip-rule="evenodd"><defs><style>.fil0{fill:#5e8cda}</style></defs><g id="Layer_x0020_1"><g id="litespeed.svg"><path class="fil0" d="M254635 161846l-76679-76621-32681 41400 35222 35222c3291 3233 3291 8545 0 11837l-10162 10162s6929 10278 7160 10971c1617 3118 1963 10567-2541 13973l-80086 61435v63110l159767-159652c3233-3291 3233-8545 0-11837z"/><path d="M76565 171488c-3233-3233-3233-8545 0-11779l10162-10220-6929-10047c-3349-4735-2309-11433 2310-14897l80143-61435V0h-115L2427 159709C873 161285 0 163413 0 165627c0 2215 873 4342 2427 5919l76679 76736 32681-41457-35222-35222v-115z" fill="#093071"/><path fill="#fff" d="M129917 222126l-37127 37069z"/><path class="fil0" d="M202554 38513c1039 0 2136 577 2598 1617 866 1732-289 3349-1386 4793l-70212 89035c-1039 1328-1155 3811-173 5197 0 0 37935 54853 39263 56758 1386 2079 1501 8199-1732 10740L58030 293263c-1617 1155-2541 1559-3637 1559-1039 0-2079-750-2483-1617-924-1732 231-3465 1328-4850l70154-89093c1039-1328 1155-3696 173-5081l-39090-56354c-2541-3580-1732-8661 1732-11259l112824-86610c1848-1443 2772-1617 3464-1617m0-1444c-1328 0-2598 578-4330 1906L85283 125413c-4042 3118-4966 9007-2021 13165l39148 56354c578 808 578 2483-115 3349l-70154 89266c-924 1155-2887 3695-1559 6352 693 1328 2194 2309 3696 2425 1732 0 3060-693 4619-1906l112824-86726c3926-2887 3926-9989 2078-12703-1328-1848-39263-56759-39263-56759-578-866-462-2598 173-3464l70270-88920c866-1155 2771-3580 1501-6351-751-1386-2310-2310-3926-2310l-58-289z"/><path d="M169757 196143c924 1386 1732 6582-577 8315L56356 291068c-981 808-1559 1155-1848 1155-404 0-115-693 924-2021l70154-89035c1732-2309 1906-6063 289-8372l-39148-56354s82107 58317 83030 59761v-57z" fill="#f5cd21"/><path d="M169757 196143l-38570-55431c-1617-2425-1501-6178 231-8430l70096-88978c1155-1386 1386-2078 1039-2078-289 0-924 346-1848 1155L87823 128991c-2194 1732-2714 5024-1039 7391l82972 59761z" fill="#fddd75"/></g></g></svg>