<svg xmlns="http://www.w3.org/2000/svg" viewBox="0 0 2000 1332.9" style="enable-background:new 0 0 2000 1332.9" xml:space="preserve"><path d="M1286 1330.5h-48.4c-1.7 0-3.4-1.3-3.4-3.4v-171.8c0-19.2 9.4-28.9 27.9-34 30.3-8.4 51.4-10.4 70.6-10.4 63.6 0 88.4 32.6 88.4 78v138.2c0 1.7-1.3 3.4-3.4 3.4h-47.8c-1.7 0-3.4-1.3-3.4-3.4v-133.5c0-20.2-8.7-36-37-36-9.1 0-18.5.7-38 5.7-1.3.3-2.4 1.7-2.4 3V1327c.3 2.2-1 3.5-3.1 3.5M1549.7 1149.6c-27.6 0-44.7 18.8-47.8 49.1-.3 2 1.3 3.7 3.4 3.7h89.1c2 0 3.4-1.7 3.4-3.4-1.4-27.5-15.8-49.4-48.1-49.4m53.8 179.6c-.7 1-1.7 1.3-2.7 1.3h-43.4c-64.9 0-109-34.6-109-108.3 0-77.7 47.4-112.3 102.6-112.3 60.2 0 99.5 34 99.5 106.6 0 15.5-7.1 22.9-22.9 22.9h-122.1c-2 0-3.4 1.7-3.4 3.7 4 30.9 27.6 43 59.2 43h64.6c2.7 0 4 3 2.7 5l-25.1 38.1z"/><path d="m1793.5 1328.8-41-66.2c-1.3-2-4.4-2-5.4 0l-41.4 66.2c-.7 1-1.7 1.7-2.7 1.7h-55.1c-2.7 0-4-3-2.7-5l68.3-102.2c.7-1 .7-2.4 0-3.7l-66.9-101.6c-1.3-2 0-5 2.7-5h55.5c1 0 2 .7 2.7 1.7l39.7 63.2c1.3 2 4.4 2 5.7 0l37.7-63.2c.7-1 1.7-1.7 2.7-1.7h55.1c2.7 0 4 3 2.7 5l-64.6 99.5c-.7 1-.7 2.4 0 3.7l68.3 104.6c1.3 2 0 5-2.7 5h-56.2c-.8-.3-2.1-.9-2.4-2M1999.9 1321.4c.3 1.7-.7 3.4-2.4 3.7-19.5 5-35 7.7-50.1 7.7-50.1 0-73.3-27.2-73.3-80.4v-181.2c0-1.7 1-3 2.7-3.4l47.1-8.7c2-.3 3.7 1 3.7 3.4v47.1c0 1.7 1.3 3.4 3.4 3.4h59.5c1.7 0 3.4 1.3 3.4 3.4v35.3c0 1.7-1.3 3.4-3.4 3.4H1931c-1.7 0-3.4 1.3-3.4 3.4v98.2c0 19.5 7.1 33.3 29.3 33.3 9.4 0 20.8-2.4 33.3-5.4 2-.3 3.7.7 4 2.7l5.7 34.1z"/><path d="M2105.5 1323.4c-10.4 0-21.2-2.4-30.9-7.1-35.6-17.1-50.8-60.2-33.3-95.8l300.3-622.8c17.1-35.6 60.2-50.8 95.8-33.3 35.6 17.1 50.8 60.2 33.3 95.8L2170.4 1283c-12.8 25.6-38.3 40.4-64.9 40.4z" style="fill:#1e3c3c" transform="translate(-495.96 -330.528)"/><g transform="translate(-495.96 -330.528)"><linearGradient id="a" gradientUnits="userSpaceOnUse" x1="1761.969" y1="1436.997" x2="2320.08" y2="448.865" gradientTransform="matrix(1 0 0 -1 -495.96 1665.037)"><stop offset="0" style="stop-color:#00ff5f"/><stop offset=".304" style="stop-color:#00ff5f"/><stop offset=".819" style="stop-color:#1e3c3c"/><stop offset="1" style="stop-color:#1e3c3c"/></linearGradient><path d="M2105.5 1323.4c-16.5 0-33-5.7-46.4-17.1L1057 456.9c-30.3-25.6-34-71-8.4-100.9 25.6-30.3 71-34 100.9-8.4L2151.6 1197c30.3 25.6 34 71 8.4 100.9-14.2 17.1-34.3 25.5-54.5 25.5z" style="fill:url(#a)"/></g><g transform="translate(-495.96 -330.528)"><linearGradient id="b" gradientUnits="userSpaceOnUse" x1="1789.055" y1="484.832" x2="2790.911" y2="1157.31" gradientTransform="matrix(1 0 0 -1 -495.96 1665.037)"><stop offset="0" style="stop-color:#00ff5f"/><stop offset=".304" style="stop-color:#00ff5f"/><stop offset=".819" style="stop-color:#1e3c3c"/><stop offset="1" style="stop-color:#1e3c3c"/></linearGradient><path d="M567.7 1543c-27.2 0-53.1-15.5-65.2-41.7-16.5-36-.7-78.7 35.3-95.2l1838.1-842.4c36-16.5 78.7-.7 95.2 35.3s.7 78.7-35.3 95.2l-1838.1 842c-9.8 4.8-19.9 6.8-30 6.8z" style="fill:url(#b)"/></g><path d="M567.7 1543c-10.8 0-21.9-2.4-31.9-7.7-35.3-17.8-49.8-60.9-31.9-96.2l535.7-1069c17.8-35.3 60.9-49.8 96.2-31.9 35.3 17.8 49.8 60.9 31.9 96.2L632 1503.4c-12.8 25.2-38 39.6-64.3 39.6z" style="fill:#00ff5f" transform="translate(-495.96 -330.528)"/></svg>