<?xml version="1.0" encoding="UTF-8"?>
<!DOCTYPE svg PUBLIC "-//W3C//DTD SVG 1.1//EN" "http://www.w3.org/Graphics/SVG/1.1/DTD/svg11.dtd">
<!-- Creator: CorelDRAW -->
<svg xmlns="http://www.w3.org/2000/svg" xml:space="preserve" width="2048px" height="2048px" style="shape-rendering:geometricPrecision; text-rendering:geometricPrecision; image-rendering:optimizeQuality; fill-rule:evenodd; clip-rule:evenodd"
viewBox="0 0 2048 2048"
 xmlns:xlink="http://www.w3.org/1999/xlink">
 <defs>
  <style type="text/css">
   <![CDATA[
    .fil1 {fill:none}
    .fil0 {fill:#EF5350}
    .fil2 {fill:#FFFFFE;fill-rule:nonzero}
   ]]>
  </style>
 </defs>
 <g id="Layer_x0020_1">
  <metadata id="CorelCorpID_0Corel-Layer"/>
  <rect class="fil0" width="2048" height="2048" rx="256.001" ry="256.001"/>
  <rect class="fil1" x="255.999" y="255.999" width="1536" height="1536"/>
  <path class="fil2" d="M1261.91 402.088c110.027,110.029 178.084,262.029 178.084,429.913l-0.125197 0c-0.0011811,167.96 -68.0115,319.955 -177.962,429.906 -110.028,110.028 -262.025,178.087 -429.902,178.087 -167.884,0 -319.886,-68.0587 -429.916,-178.086 -110.032,-110.029 -178.09,-262.029 -178.09,-429.907 0,-167.884 68.0575,-319.888 178.088,-429.916 110.03,-110.028 262.032,-178.087 429.918,-178.087 167.877,0 319.877,68.0599 429.904,178.089zm-712.62 712.617c72.4323,72.4312 172.435,117.291 282.716,117.291 110.273,0 210.271,-44.8607 282.702,-117.292 72.4312,-72.4312 117.292,-172.429 117.292,-282.703l0 -0.00236221 0.125197 0c0,-110.192 -44.9103,-210.202 -117.418,-282.712 -72.4312,-72.4323 -172.428,-117.294 -282.698,-117.294l-0.00236221 0c-110.281,0 -210.284,44.8618 -282.717,117.294 -72.4335,72.4335 -117.295,172.435 -117.295,282.715 0,110.275 44.8618,210.273 117.297,282.704z"/>
  <path class="fil2" d="M1452.03 1203.15l352.413 352.409 0.0826772 0.0826772 0 0.125197c34.3181,34.3748 51.4796,79.3477 51.4796,124.266 0,45.0036 -17.1614,90.0036 -51.4807,124.322l-0.0826772 0.0826772 -0.0838583 0.0838583c-34.3193,34.3193 -79.3182,51.4796 -124.323,51.4796 -44.9174,0 -89.8879,-17.1602 -124.262,-51.4796l-0.125197 0 -0.0838583 -0.0838583 -352.413 -352.408 -28.0276 -28.0276 33.4028 -21.4725c38.7284,-24.8965 74.7119,-53.9646 107.373,-86.6257 32.6622,-32.6622 61.7304,-68.6481 86.6304,-107.379l21.4725 -33.4016 28.0276 28.0264z"/>
  <polygon class="fil2" points="939.685,1034.88 839.972,982.474 740.24,1034.88 682.979,1064.97 693.865,1001.26 712.845,890.174 632.232,811.411 585.982,766.223 649.981,756.91 761.396,740.698 811.236,639.754 839.832,581.84 868.486,639.754 918.433,740.696 1029.85,756.91 1093.86,766.225 1047.6,811.411 966.979,890.164 986.059,1001.26 997.011,1065.01 "/>
 </g>
</svg>
