<svg role="img" viewBox="0 0 24 24" xmlns="http://www.w3.org/2000/svg" id="Unpkg--Streamline-Simple-Icons" height="24" width="24">
  <desc>
    Unpkg Streamline Icon: https://streamlinehq.com
  </desc>
  <title>unpkg</title>
  <path d="M0 0v24h24V0H0zm4.322 2.977 4.37 0.002a0.043 0.043 0 0 1 0.044 0.04 9542.6 9542.6 0 0 1 0 9.165c0 0.75 0.029 1.403 0.09 1.957 0.038 0.336 0.134 0.68 0.287 1.03 0.336 0.769 0.907 1.237 1.715 1.405 0.626 0.13 1.258 0.127 1.893 -0.008 1.166 -0.248 1.813 -1.268 1.96 -2.404 0.067 -0.513 0.1 -1.186 0.1 -2.018 -0.001 -3.15 -0.001 -6.188 0.002 -9.119 0 -0.033 0.017 -0.05 0.049 -0.05h4.338a0.033 0.033 0 0 1 0.033 0.033v9.869c0 1.465 -0.17 2.918 -0.746 4.234 -0.777 1.775 -2.323 2.836 -4.195 3.211 -1.7 0.341 -3.39 0.338 -5.07 -0.013 -2.226 -0.465 -3.808 -1.828 -4.46 -4.03 -0.249 -0.846 -0.389 -1.708 -0.416 -2.586a65.217 65.217 0 0 1 -0.029 -1.88c-0.002 -3.037 -0.002 -5.97 0 -8.801 0 -0.024 0.011 -0.037 0.035 -0.037z" fill="#000000" stroke-width="1"></path>
</svg>