<?xml version="1.0" encoding="iso-8859-1"?>
<!-- Generator: Adobe Illustrator 24.3.0, SVG Export Plug-In . SVG Version: 6.00 Build 0)  -->
<svg version="1.1" xmlns="http://www.w3.org/2000/svg" xmlns:xlink="http://www.w3.org/1999/xlink" x="0px" y="0px"
	 viewBox="0 0 512 512" style="enable-background:new 0 0 512 512;" xml:space="preserve">
<g id="_x31_1_x2C__watch_x2C__play_button_x2C__play_x2C__live_streaming_x2C__play_video">
	<g>
		<g>
			<path style="fill:#D3CBE4;" d="M431.313,363.313v50.469c0,27.285-22.121,49.406-49.406,49.406H130.094
				c-27.285,0-49.406-22.121-49.406-49.406v-50.469H431.313z"/>
			<path style="fill:#FBF3F3;" d="M511,116.281v215.688c0,37.262-30.207,67.469-67.469,67.469c-42.235,0-327.244,0-375.063,0
				C31.207,399.438,1,369.231,1,331.969V116.281c0-37.262,30.207-67.469,67.469-67.469h375.063
				C480.793,48.813,511,79.019,511,116.281z"/>
			<path style="fill:#FF884D;" d="M256,112.563c61.614,0,111.563,49.948,111.563,111.562S317.614,335.688,256,335.688
				s-111.563-49.948-111.563-111.563S194.386,112.563,256,112.563z"/>
			<path style="fill:#FF415B;" d="M286.665,233.326l-44.328,25.595c-7.083,4.09-15.938-1.022-15.938-9.201V198.53
				c0-8.179,8.854-13.291,15.938-9.201l44.328,25.595C293.748,219.013,293.748,229.237,286.665,233.326z"/>
		</g>
	</g>
</g>
<g id="Layer_1">
</g>
</svg>
